<svg width="60" height="11" xmlns="http://www.w3.org/2000/svg">
  <defs>
    <!-- Создание маски -->
    <mask id="ratingMask">
      <!-- Определение прямоугольной области для частичного заполнения -->
      <rect x="0" y="0" width="50" height="11" fill="white" />
    </mask>
  </defs>
  
  <!-- Использование маски -->
  <path d="m5.8718,0.03648l1.80568,3.51469l3.90062,0.6312l-2.78465,2.8034l0.60506,3.9048l-3.52671,-1.7821l-3.52671,1.7821l0.60506,-3.9048l-2.78469,-2.8034l3.90066,-0.6312l1.80568,-3.5147l0,0.00001zm11.92307,0.03647l1.80568,3.5147l3.90062,0.6312l-2.78465,2.8034l0.60506,3.9048l-3.52671,-1.7821l-3.52671,1.7821l0.60506,-3.9048l-2.78469,-2.8034l3.90066,-0.6312l1.80568,-3.5147zm12.10257,0.03648l1.80568,3.5147l3.90062,0.6312l-2.78465,2.8034l0.60506,3.9048l-3.52671,-1.7821l-3.52671,1.7821l0.60506,-3.9048l-2.78469,-2.8034l3.90066,-0.6312l1.80568,-3.5147zm12.28205,0.03647l1.80568,3.5147l3.90062,0.6312l-2.78465,2.8034l0.60506,3.9048l-3.52671,-1.7821l-3.52671,1.7821l0.60506,-3.9048l-2.78469,-2.8034l3.90066,-0.6312l1.80568,-3.5147zm12.33333,0.03648l1.80568,3.5147l3.90062,0.6312l-2.78465,2.8034l0.60506,3.9048l-3.52671,-1.7821l-3.52671,1.7821l0.60506,-3.9048l-2.78469,-2.8034l3.90066,-0.6312l1.80568,-3.5147z" fill="#f2c94c" mask="url(#ratingMask)" />
</svg>